<?xml version="1.0" encoding="utf-8"?>
<!-- Generator: Adobe Illustrator 16.0.0, SVG Export Plug-In . SVG Version: 6.00 Build 0)  -->
<!DOCTYPE svg PUBLIC "-//W3C//DTD SVG 1.1//EN" "http://www.w3.org/Graphics/SVG/1.1/DTD/svg11.dtd">
<svg version="1.1" id="Layer_1" xmlns="http://www.w3.org/2000/svg" xmlns:xlink="http://www.w3.org/1999/xlink" x="0px" y="0px"
	 width="197.176px" height="198.38px" viewBox="0 0 197.176 198.38" enable-background="new 0 0 197.176 198.38"
	 xml:space="preserve">
<path fill="#10003B" d="M99.651,107.307c-31.333,0-56.825-24.069-56.825-53.654S68.318,0,99.651,0s56.825,24.068,56.825,53.653
	S130.984,107.307,99.651,107.307 M99.651,4C70.523,4,46.826,26.274,46.826,53.653s23.697,49.654,52.825,49.654
	s52.825-22.275,52.825-49.654S128.779,4,99.651,4"/>
<path fill="#10003B" d="M180.303,198.38H19c-3.601,0-6.531-2.93-6.531-6.53v-1.451c0-48.073,39.11-87.183,87.183-87.183
	c48.073,0,87.183,39.11,87.183,87.183v1.451C186.834,195.45,183.904,198.38,180.303,198.38 M99.651,107.216
	c-45.867,0-83.183,37.315-83.183,83.183v1.451c0,1.395,1.135,2.53,2.531,2.53h161.304c1.396,0,2.531-1.135,2.531-2.53v-1.451
	C182.834,144.531,145.519,107.216,99.651,107.216"/>
<path fill="#10003B" d="M40.816,149.219c-0.409,0-0.821-0.125-1.177-0.384c-0.892-0.651-1.088-1.902-0.437-2.795
	c6.134-8.412,13.803-15.321,22.794-20.536c0.956-0.553,2.18-0.229,2.734,0.728c0.554,0.955,0.229,2.178-0.727,2.733
	c-8.507,4.934-15.764,11.472-21.57,19.433C42.042,148.934,41.434,149.219,40.816,149.219"/>
<path fill="#10003B" d="M31.433,166.735c-0.23,0-0.463-0.04-0.692-0.124c-1.036-0.383-1.567-1.532-1.184-2.568
	c1.464-3.974,3.288-7.852,5.419-11.526c0.556-0.955,1.78-1.279,2.734-0.725c0.955,0.553,1.281,1.778,0.726,2.733
	c-2.017,3.476-3.741,7.143-5.127,10.9C33.012,166.234,32.246,166.735,31.433,166.735"/>
<path fill="#10003B" d="M150.323,151.24h-38.891c-1.104,0-2-0.896-2-2v-11.309c0-1.104,0.896-2,2-2h38.891c1.105,0,2,0.896,2,2
	v11.309C152.323,150.344,151.428,151.24,150.323,151.24 M113.432,147.24h34.891v-7.309h-34.891V147.24z"/>
</svg>
